<svg width="512" height="512" viewBox="0 0 512 512" fill="none" xmlns="http://www.w3.org/2000/svg">
    <style>
        rect,
        path {
            fill: #864e00;
            stroke: #864e00;
        }

        @media(prefers-color-scheme: dark) {

            rect,
            path {
                fill: #FF9701;
                stroke: #FF9701;
            }
        }
    </style>
    <g clip-path="url(#clip0_112_561)">
        <g filter="url(#filter0_d_112_561)">
            <path fill-rule="evenodd" clip-rule="evenodd"
                d="M417.553 256C417.553 225.264 412.224 196.066 402.644 169.845C401.128 165.695 396.534 163.56 392.384 165.077C388.234 166.593 386.099 171.186 387.616 175.336C396.542 199.768 401.553 227.105 401.553 256C401.553 284.895 396.542 312.232 387.616 336.664C386.099 340.814 388.235 345.407 392.384 346.924C396.534 348.44 401.128 346.305 402.644 342.155C412.224 315.934 417.553 286.736 417.553 256ZM339.634 431.374C343.139 428.684 343.799 423.662 341.109 420.157C338.419 416.652 333.397 415.992 329.892 418.682C308.098 435.41 282.836 444.863 256 444.863C229.164 444.863 203.902 435.41 182.108 418.682C178.603 415.992 173.581 416.652 170.891 420.157C168.201 423.662 168.861 428.684 172.366 431.374C196.629 449.997 225.251 460.863 256 460.863C286.749 460.863 315.371 449.997 339.634 431.374ZM329.892 93.3185C333.397 96.0086 338.419 95.3482 341.109 91.8433C343.799 88.3385 343.139 83.3164 339.634 80.6262C315.371 62.0029 286.749 51.1369 256 51.1369C225.251 51.1369 196.629 62.0029 172.366 80.6262C168.861 83.3164 168.201 88.3385 170.891 91.8433C173.581 95.3482 178.603 96.0087 182.108 93.3185C203.902 76.5904 229.164 67.1369 256 67.1369C282.836 67.1369 308.098 76.5904 329.892 93.3185ZM124.384 175.336C125.901 171.186 123.765 166.593 119.616 165.077C115.466 163.56 110.872 165.695 109.356 169.845C99.7757 196.066 94.4466 225.264 94.4466 256C94.4466 286.736 99.7757 315.934 109.356 342.155C110.872 346.305 115.466 348.44 119.616 346.924C123.765 345.407 125.901 340.814 124.384 336.664C115.458 312.232 110.447 284.895 110.447 256C110.447 227.105 115.458 199.768 124.384 175.336ZM372 256C372 240.809 370.639 226.074 368.083 212.053C367.291 207.707 363.124 204.825 358.778 205.618C354.431 206.41 351.55 210.576 352.343 214.923C354.724 227.987 356 241.761 356 256C356 270.239 354.724 284.013 352.342 297.077C351.55 301.424 354.431 305.59 358.778 306.382C363.124 307.175 367.291 304.293 368.083 299.947C370.639 285.926 372 271.191 372 256ZM292.834 113.647C296.607 115.946 301.529 114.752 303.829 110.979C306.128 107.206 304.934 102.284 301.161 99.9843C287.541 91.6827 272.444 87 256.5 87C240.556 87 225.459 91.6827 211.839 99.9843C208.066 102.284 206.872 107.206 209.171 110.979C211.471 114.752 216.393 115.946 220.166 113.647C231.544 106.712 243.791 103 256.5 103C269.209 103 281.456 106.712 292.834 113.647ZM301.161 412.016C304.934 409.716 306.128 404.794 303.829 401.021C301.529 397.248 296.606 396.054 292.834 398.353C281.456 405.288 269.209 409 256.5 409C243.791 409 231.544 405.288 220.166 398.353C216.393 396.054 211.471 397.248 209.171 401.021C206.872 404.794 208.066 409.716 211.839 412.016C225.459 420.317 240.556 425 256.5 425C272.444 425 287.541 420.317 301.161 412.016ZM160.658 214.923C161.45 210.576 158.569 206.41 154.222 205.618C149.876 204.825 145.709 207.707 144.917 212.053C142.361 226.074 141 240.809 141 256C141 271.191 142.361 285.926 144.917 299.947C145.709 304.293 149.876 307.175 154.222 306.382C158.569 305.59 161.45 301.424 160.658 297.077C158.276 284.013 157 270.239 157 256C157 241.761 158.276 227.987 160.658 214.923Z"
                fill="#FF9701" />
        </g>
        <g>
            <rect x="192" y="141.037" width="130" height="232.716" rx="15" fill="#FF9701" />
            <rect x="192" y="141.037" width="130" height="232.716" rx="15" stroke="#FF9701" stroke-width="0.5" />
        </g>
        <circle cx="257.225" cy="155.481" r="8.02469" fill="#222121" fill-opacity="0.66" />
        <g>
            <circle cx="257" cy="155.624" r="4.08571" fill="#222121" fill-opacity="0.66" />
        </g>
    </g>
</svg>